<?xml version="1.0" encoding="UTF-8"?>
<!DOCTYPE svg PUBLIC "-//W3C//DTD SVG 1.1//EN" "http://www.w3.org/Graphics/SVG/1.1/DTD/svg11.dtd">
<svg xmlns="http://www.w3.org/2000/svg" version="1.1" width="512px" height="512px" style="shape-rendering:geometricPrecision; text-rendering:geometricPrecision; image-rendering:optimizeQuality; fill-rule:evenodd; clip-rule:evenodd" xmlns:xlink="http://www.w3.org/1999/xlink">
<g><path style="opacity:0.94" fill="#000000" d="M 228.5,-0.5 C 231.833,-0.5 235.167,-0.5 238.5,-0.5C 243.246,3.34233 244.746,8.34233 243,14.5C 228.505,29.4705 226.171,46.1371 236,64.5C 259.935,87.9765 264.268,114.643 249,144.5C 245.812,148.685 242.312,152.518 238.5,156C 226.667,158.167 221.833,153.333 224,141.5C 238.495,126.53 240.829,109.863 231,91.5C 207.067,68.0371 202.733,41.3704 218,11.5C 221.365,7.30683 224.865,3.30683 228.5,-0.5 Z"/></g>
<g><path style="opacity:0.937" fill="#000000" d="M 148.5,36.5 C 158.756,35.0181 163.59,39.3514 163,49.5C 159.748,54.3343 156.748,59.3343 154,64.5C 152.919,71.0544 153.586,77.3877 156,83.5C 175.344,102.344 178.677,123.677 166,147.5C 164.188,150.28 162.021,152.78 159.5,155C 146.178,158.676 141.012,153.842 144,140.5C 156.048,125.962 155.048,112.295 141,99.5C 131.674,84.6918 130.007,69.0251 136,52.5C 138.991,46.1519 143.158,40.8186 148.5,36.5 Z"/></g>
<g><path style="opacity:0.937" fill="#000000" d="M 309.5,36.5 C 320.49,34.9918 325.324,39.6585 324,50.5C 319.733,55.1053 316.733,60.4386 315,66.5C 313.902,72.8594 314.902,78.8594 318,84.5C 336.15,102.709 339.483,123.375 328,146.5C 325.872,149.63 323.372,152.463 320.5,155C 311.232,159.033 305.565,156.199 303.5,146.5C 303.763,143.972 304.596,141.639 306,139.5C 314.801,129.31 315.801,118.31 309,106.5C 291.497,88.2036 288.831,67.8702 301,45.5C 303.396,42.0015 306.229,39.0015 309.5,36.5 Z"/></g>
<g><path style="opacity:0.982" fill="#010101" d="M 198.5,190.5 C 198.288,195.877 195.622,199.377 190.5,201C 150.168,201.5 109.835,201.667 69.5,201.5C 69.1811,226.519 69.6811,251.519 71,276.5C 72.8809,289.741 75.7143,302.741 79.5,315.5C 85.6227,312.848 91.956,310.681 98.5,309C 114.205,305.957 128.539,308.957 141.5,318C 157.313,332.783 162.146,350.617 156,371.5C 152.407,383.863 145.907,394.363 136.5,403C 201.167,403.667 265.833,403.667 330.5,403C 367.8,368.236 389.634,325.402 396,274.5C 397.381,250.192 397.881,225.858 397.5,201.5C 356.832,201.667 316.165,201.5 275.5,201C 270.952,198.956 268.619,195.456 268.5,190.5C 268.892,184.94 271.892,181.773 277.5,181C 328.5,180.333 379.5,180.333 430.5,181C 474.601,185.608 501.601,209.441 511.5,252.5C 511.5,261.167 511.5,269.833 511.5,278.5C 503.755,315.081 481.755,338.248 445.5,348C 428.631,349.083 411.798,349.916 395,350.5C 385.766,369.815 373.933,387.315 359.5,403C 393.833,403.333 428.167,403.667 462.5,404C 464.333,405.167 465.833,406.667 467,408.5C 468.161,441.662 452.661,462.495 420.5,471C 406.504,471.5 392.504,471.667 378.5,471.5C 373.583,492.75 360.583,506.083 339.5,511.5C 268.833,511.5 198.167,511.5 127.5,511.5C 106.417,506.083 93.4166,492.75 88.5,471.5C 74.496,471.667 60.496,471.5 46.5,471C 21.6522,464.652 5.98555,449.152 -0.5,424.5C -0.5,419.167 -0.5,413.833 -0.5,408.5C 0.971672,406.866 2.63834,405.366 4.5,404C 19.5,403.667 34.5,403.333 49.5,403C 42.8894,391.336 40.7227,378.836 43,365.5C 45.9618,351.074 52.4618,338.574 62.5,328C 55.7766,309.05 51.6099,289.55 50,269.5C 49.0173,241.413 49.3507,213.413 51,185.5C 52.762,182.732 55.262,181.232 58.5,181C 102.167,180.333 145.833,180.333 189.5,181C 195.108,181.773 198.108,184.94 198.5,190.5 Z M 417.5,245.5 C 425.352,244.596 432.685,246.096 439.5,250C 446.94,257.419 448.44,265.919 444,275.5C 441.404,279.39 437.904,282.223 433.5,284C 427.509,284.499 421.509,284.666 415.5,284.5C 417.081,271.556 417.748,258.556 417.5,245.5 Z"/></g>
<g><path style="opacity:0.948" fill="#020202" d="M 243.5,190.5 C 242.199,199.648 237.199,202.815 228.5,200C 225.227,197.681 223.56,194.514 223.5,190.5C 224.104,184.563 227.437,181.229 233.5,180.5C 239.563,181.229 242.896,184.563 243.5,190.5 Z"/></g>
<g><path style="opacity:0.999" fill="#e6f9fc" d="M 198.5,190.5 C 206.833,190.5 215.167,190.5 223.5,190.5C 223.56,194.514 225.227,197.681 228.5,200C 237.199,202.815 242.199,199.648 243.5,190.5C 251.833,190.5 260.167,190.5 268.5,190.5C 268.619,195.456 270.952,198.956 275.5,201C 316.165,201.5 356.832,201.667 397.5,201.5C 397.881,225.858 397.381,250.192 396,274.5C 389.634,325.402 367.8,368.236 330.5,403C 265.833,403.667 201.167,403.667 136.5,403C 145.907,394.363 152.407,383.863 156,371.5C 162.146,350.617 157.313,332.783 141.5,318C 128.539,308.957 114.205,305.957 98.5,309C 91.956,310.681 85.6227,312.848 79.5,315.5C 75.7143,302.741 72.8809,289.741 71,276.5C 69.6811,251.519 69.1811,226.519 69.5,201.5C 109.835,201.667 150.168,201.5 190.5,201C 195.622,199.377 198.288,195.877 198.5,190.5 Z"/></g>
<g><path style="opacity:1" fill="#c9f2f9" d="M 417.5,201.5 C 455.524,199.495 479.857,216.661 490.5,253C 494.223,291.243 477.89,316.243 441.5,328C 428.858,329.682 416.191,329.849 403.5,328.5C 406.143,321.261 408.476,313.928 410.5,306.5C 419.854,305.818 429.188,304.984 438.5,304C 462.347,294.14 471.18,276.64 465,251.5C 455.412,231.784 439.579,223.117 417.5,225.5C 417.5,217.5 417.5,209.5 417.5,201.5 Z"/></g>
<g><path style="opacity:1" fill="#cc9d81" d="M 104.5,327.5 C 108.571,327.234 112.571,327.567 116.5,328.5C 117.666,339.667 113.333,348.167 103.5,354C 84.7078,358.467 71.8745,369.634 65,387.5C 60.8427,375.566 62.176,364.233 69,353.5C 77.648,340.334 89.4813,331.667 104.5,327.5 Z"/></g>
<g><path style="opacity:1" fill="#cc9d81" d="M 135.5,343.5 C 136.927,345.148 137.76,347.148 138,349.5C 138.323,373.01 127.823,389.844 106.5,400C 99.0583,402.655 91.3916,403.822 83.5,403.5C 83.9118,386.57 92.5785,376.403 109.5,373C 122.918,367.314 131.585,357.481 135.5,343.5 Z"/></g>
<g><path style="opacity:1" fill="#cbf4fb" d="M 21.5,423.5 C 162.833,423.5 304.167,423.5 445.5,423.5C 441.249,438.248 431.582,447.415 416.5,451C 399.5,451.333 382.5,451.667 365.5,452C 363,453.167 361.167,455 360,457.5C 360.329,473.471 353.162,484.304 338.5,490C 303.038,491.15 267.538,491.65 232,491.5C 198.167,491.333 164.333,491.167 130.5,491C 115.229,485.649 107.396,474.816 107,458.5C 106.027,454.594 103.527,452.427 99.5,452C 82.8333,451.667 66.1667,451.333 49.5,451C 34.9822,446.981 25.6489,437.815 21.5,423.5 Z"/></g>
</svg>
